<?xml version="1.0" standalone="no"?>
<!DOCTYPE svg PUBLIC "-//W3C//DTD SVG 20010904//EN"
 "http://www.w3.org/TR/2001/REC-SVG-20010904/DTD/svg10.dtd">
<svg version="1.0" xmlns="http://www.w3.org/2000/svg"
 width="180.000000pt" height="59.000000pt" viewBox="0 0 180.000000 59.000000"
 preserveAspectRatio="xMidYMid meet">
<metadata>
Created by potrace 1.16, written by Peter Selinger 2001-2019
</metadata>
<g transform="translate(0.000000,59.000000) scale(0.100000,-0.100000)"
fill="#000000" stroke="none">
<path d="M0 535 l0 -45 138 0 c149 0 170 -6 153 -37 -9 -18 -53 -53 -66 -53
-3 0 -5 18 -5 40 l0 40 -55 0 -55 0 0 -135 0 -135 55 0 55 0 0 73 0 72 29 -52
c30 -55 99 -153 108 -153 2 0 24 14 49 30 l44 31 -41 51 c-22 28 -46 63 -54
78 -12 23 -12 27 6 38 11 7 29 27 40 45 l20 32 -8 -40 c-20 -106 1 -173 63
-205 63 -32 244 -9 244 32 0 6 10 2 23 -10 19 -18 35 -22 83 -22 73 0 130 15
143 38 9 14 10 13 11 -10 l0 -28 104 0 104 0 15 43 15 42 1 -42 1 -43 119 0
119 0 11 31 c20 58 18 59 -69 59 -79 0 -80 0 -80 25 0 24 3 25 55 25 59 0 58
-1 79 68 7 21 5 22 -63 22 -69 0 -71 1 -71 25 0 24 2 25 75 25 82 0 84 2 64
59 l-11 31 -114 0 -114 0 0 -135 0 -135 -65 0 -65 0 0 135 0 135 -55 0 -55 0
0 -122 0 -121 -29 39 c-16 21 -43 52 -60 68 -17 17 -31 33 -31 38 0 4 25 8 56
8 l56 0 -7 37 c-4 21 -9 41 -11 45 -3 5 -40 8 -83 8 -101 0 -131 -19 -131 -85
0 -45 13 -66 89 -147 l35 -38 -56 0 -55 0 -6 59 c-7 80 -46 165 -89 191 -40
24 -107 26 -149 4 -17 -8 -43 -36 -60 -62 -23 -36 -29 -41 -29 -23 0 37 -28
78 -61 90 -18 6 -102 11 -195 11 l-164 0 0 -45z m603 -63 c21 -23 42 -112 33
-146 -7 -30 -45 -44 -85 -30 -20 7 -27 17 -29 44 -5 49 6 94 29 124 24 31 31
32 52 8z"/>
<path d="M1470 568 c0 -7 22 -89 48 -183 l48 -170 63 0 63 0 49 165 c27 91 49
173 49 183 0 14 -9 17 -54 17 l-54 0 -22 -92 c-13 -51 -26 -97 -30 -101 -3 -4
-17 38 -29 93 l-22 100 -55 0 c-37 0 -54 -4 -54 -12z"/>
</g>
</svg>
